PathFileType	4	(X/Y/Z)	Patient4_TMGait_0pt7_02_right_12.trc.trc
DataRate	CameraRate	NumFrames	NumMarkers	Units	OrigDataRate	OrigDataStartFrame	OrigNumFrames
86.956521739130	86.956521739130	4	33	mm	86.956521739130	124	       141
Frame#	Time	Sacral			L.Shoulder			Chest			R.Shoulder			Neck			R.ASIS			L.ASIS			R.Thigh.Superior			R.Thigh.Lateral			R.Thigh.Inferior			R.Patella			L.Thigh.Superior			L.Thigh.Lateral			L.Thigh.Inferior			L.Patella			L.Shank.Superior			L.Shank.Lateral			L.Shank.Inferior			R.Shank.Superior			R.Shank.Lateral			R.Shank.Inferior			R.Heel			R.Midfoot.Superior			R.Midfoot.Lateral			R.Toe			L.Heel			L.Midfoot.Lateral			L.Midfoot.Superior			L.Toe			L.Elbow			L.Wrist			R.Elbow			R.Wrist			
		X1	Y1	Z1	X2	Y2	Z2	X3	Y3	Z3	X4	Y4	Z4	X5	Y5	Z5	X6	Y6	Z6	X7	Y7	Z7	X8	Y8	Z8	X9	Y9	Z9	X10	Y10	Z10	X11	Y11	Z11	X12	Y12	Z12	X13	Y13	Z13	X14	Y14	Z14	X15	Y15	Z15	X16	Y16	Z16	X17	Y17	Z17	X18	Y18	Z18	X19	Y19	Z19	X20	Y20	Z20	X21	Y21	Z21	X22	Y22	Z22	X23	Y23	Z23	X24	Y24	Z24	X25	Y25	Z25	X26	Y26	Z26	X27	Y27	Z27	X28	Y28	Z28	X29	Y29	Z29	X30	Y30	Z30	X31	Y31	Z31	X32	Y32	Z32	X33	Y33	Z33	

124	14.234500000000	754.408399481106	991.543782696680	450.864101854864	935.504392798307	1411.258061317602	252.312066742329	1038.199016637594	1344.744758039301	416.111821767479	956.765969006402	1432.052102213856	584.799254671846	942.250144056782	1477.865522242979	401.149225917465	978.803860042803	926.401970076921	569.924873398141	968.073330809628	950.081733034545	294.681182889930	1048.248647997513	750.503923774305	550.375869510817	991.421203156244	628.076746102767	617.843763047447	1085.700349005063	592.577202149933	544.238668963946	1112.852411987251	511.551323863084	557.357952103631	965.219081253150	724.131134438723	320.173679485993	843.137342148704	634.272487065199	258.139312017557	899.851967859797	537.309333601372	320.329504142491	882.944863657122	469.928232464078	328.772648518543	846.279466112212	406.141124768187	320.830076081586	738.700036046171	306.635075641872	270.415018266008	774.876517647983	188.889445022252	342.006889661112	1101.750081136441	421.677985896437	566.628797057898	1048.651912437928	305.259340833101	623.753707576699	1124.224503514374	223.025337980198	575.563798095563	1037.269779965663	40.676578585989	544.403282642211	1200.846923494400	110.776693720370	584.301331498186	1121.032785460364	38.490446676418	617.537586942875	1324.250404263385	71.592521542386	610.198580741708	632.582915749750	40.137720363011	385.559928594878	706.929592031789	35.065124469849	305.732437655540	790.539579304758	95.445397399033	332.758054055389	918.645052379000	42.447637960168	305.428396082152	986.840401870949	1078.221426476999	115.919568739452	1238.808565136362	1040.939802047759	145.150954904725	828.536622601404	1129.082112967838	735.833137656152	810.997786262949	868.831242443642	765.668010574741	
125	14.246000000000	756.295027310171	990.171581318380	453.710762095578	936.110078154703	1410.075444944099	254.749868637695	1039.237210779098	1344.002315855719	418.485960585990	957.761007598921	1431.207347973947	587.260265822237	943.113920177498	1476.923299885817	403.602998357442	980.929286499948	925.420026661652	572.357825705410	970.090733504452	949.214218956873	296.981958491513	1050.508063535451	748.985779942641	552.378735081701	991.912123705347	626.399807585838	617.666770304699	1086.400327250944	591.298136192480	544.406185320814	1112.073178905875	509.363306820811	556.090425438179	966.859062882711	722.912234334724	321.751305618347	844.223032507902	633.278866124556	260.197786494372	901.012739224440	535.830572346965	321.862258573646	883.866174048800	467.655900296255	330.125097992735	845.406902340027	404.415580449448	322.181226829354	735.603823250778	307.368590364218	271.668301650080	769.215449036361	188.446162397611	342.482242975983	1100.628511532833	419.036668403763	565.264467136245	1046.611215444225	303.100323633803	622.418397921347	1120.307771584006	220.089631593637	573.295253111798	1029.397799455206	40.517373917937	542.712974417129	1194.754793418250	106.900480155864	581.049958886375	1113.332131421745	37.486264874525	615.732802862751	1317.492439812517	65.271870605044	606.890532421023	624.601049046031	41.449630919468	385.418982314802	698.993955564168	35.584673121324	305.766347855288	783.069085866178	95.500962542375	332.730174184255	910.778807297809	41.726955015469	305.359698678414	984.024467391218	1076.072067550852	118.621130236172	1236.247051000335	1041.340027025653	147.744535196798	827.000573097949	1129.331290886413	737.695173503873	807.166706757864	869.233267694463	767.129286545714	
126	14.257500000000	758.065563031622	989.219577569287	456.551863567589	936.945852472858	1409.179703486445	257.260189905071	1040.408764268008	1343.496327863984	420.974174418542	958.921578455080	1430.659488497576	589.814242707547	944.201707221130	1476.310898876703	406.151274049645	982.978062438198	924.873716879829	574.877480096055	972.158679782084	948.695472222225	299.314308506991	1052.903721328731	748.087759569203	554.123892474980	993.074662798076	625.522596233323	617.767271751292	1087.355249166664	590.604115017860	544.459329404605	1111.676467898456	507.666055742701	555.007250067557	968.730479547868	722.002754079445	323.430068896081	845.750676026293	632.354039590407	262.393220032703	902.935751747717	534.502202979415	323.426008447923	885.644198147133	465.390809581250	331.380875732862	845.172529835537	402.767841646491	323.490920645303	732.971581891895	308.455251678215	272.991892377403	763.876233765884	188.286063984925	342.876680119116	1099.708925121555	416.934205974665	564.170553162712	1044.900051994161	301.658372182676	621.866736907798	1116.215163274626	217.651869278432	571.488466835665	1021.019494533923	40.625222405158	541.710666698228	1188.095593249286	103.598266966536	578.513101016352	1105.147543716701	36.844368650063	614.608653406342	1310.200568011625	59.730104098166	604.253828480764	616.696553532019	43.409273695175	385.234357399163	691.101880141432	36.374098556774	305.779876765826	775.834096495520	95.651597581113	332.562712442458	902.918366983433	40.986507344853	305.272642705141	980.727734444183	1073.969770876112	121.707587599556	1233.150376189044	1040.481028837460	150.364372063688	826.168462024675	1129.472315823292	739.507621862053	804.578190469616	869.405578446747	768.366900120772	
127	14.269000000000	759.695738179929	988.753651756738	459.355950384274	938.022191644707	1408.645113657789	259.816158864987	1041.703491946925	1343.276877311793	423.549214666696	960.240345356792	1430.460371326564	592.429234100405	945.512117455549	1476.077519610717	408.764588796228	984.909536535294	924.812251085300	577.485868527926	974.210088233582	948.552570650813	301.686917661907	1055.297994009843	747.811037079610	555.595893884546	994.807277374118	625.438859738515	618.238312664564	1088.410454418717	590.428202516664	544.477786355875	1111.492140039673	506.456924275121	554.270096880259	970.799505751398	721.452562750849	325.237464671800	847.747973561316	631.529449864667	264.693456138316	905.679123790049	533.375521622446	324.994827271704	888.338132745365	463.190477676785	332.463640048462	845.638615766049	401.257424035275	324.690252208003	730.870987244369	309.975015206584	274.345292792716	758.950122923616	188.504443210339	343.136614635418	1098.851580269540	415.381857489860	563.455622210445	1043.387035136177	300.885170331406	622.090176966474	1111.966304033308	215.754319838783	570.199411966916	1012.455429726104	40.890492503980	541.302527390577	1181.047641662320	101.008327799765	576.750551573832	1096.770531354659	36.501883557654	614.092971866573	1302.592315945762	55.260265840925	602.362066396893	608.934699853477	46.177301856322	384.994848641748	683.285211709494	37.522678420691	305.763643018306	768.903660903604	95.920971269375	332.218916708297	895.058870026305	40.258440376741	305.177245985581	976.947493442971	1072.017507282884	125.191917187515	1229.508687675695	1038.355103856204	153.015371866582	826.109522692971	1129.518241937389	741.251396901792	803.284354857960	869.366129274394	769.378390935662	
